<svg id="svg18" xmlns="http://www.w3.org/2000/svg" viewBox="0 0 310.38 240"><defs><style>.cls-1{fill:#c964cf;}</style></defs><title>web4</title><g id="g16"><g id="g14"><g id="g10"><path id="path2" class="cls-1" d="M0,117.41H24.14l7,47.12,7.24-34.63h25l7.34,34.63,6.93-47.12H101.9L85.11,191.29H60L50.9,151.52l-9.13,39.77h-25Z" transform="translate(0 -35.19)"/><path id="path4" class="cls-1" d="M111.19,117.41H163v16.27H137.22v13.43h23.61v13.54H137.22v14.48H163v16.16H111.19Z" transform="translate(0 -35.19)"/><path id="path6" class="cls-1" d="M211.62,193q-12.06,0-36.52-1.57v-74H212a45.13,45.13,0,0,1,11,1.26,29.87,29.87,0,0,1,8.71,3.57,17.83,17.83,0,0,1,5.75,5.64,13.87,13.87,0,0,1,2.07,7.48q0,6.76-2.94,10.8t-8.82,4.94q7.35.68,11.23,5.24t3.89,12.49a19.48,19.48,0,0,1-2.36,9.37,24.58,24.58,0,0,1-6.56,7.66,33,33,0,0,1-9.92,5.2A39.14,39.14,0,0,1,211.62,193Zm7.66-25.61a8.82,8.82,0,0,0-.81-3.88,7.44,7.44,0,0,0-2.28-2.78,10.75,10.75,0,0,0-3.52-1.68,16.76,16.76,0,0,0-4.51-.58h-9.24v17.27c.81,0,1.6,0,2.37,0h8.23a12.15,12.15,0,0,0,3.83-.58,8.92,8.92,0,0,0,3.1-1.68,7.9,7.9,0,0,0,2.07-2.65,7.75,7.75,0,0,0,.76-3.49Zm-2.09-28.12q0-7.56-9.45-7.56H199v14.9h8.5a13.53,13.53,0,0,0,3.83-.52,9.84,9.84,0,0,0,3.07-1.47,6.87,6.87,0,0,0,2-2.31,6.3,6.3,0,0,0,.74-3Z" transform="translate(0 -35.19)"/><path id="path8" class="cls-1" d="M247.41,173.82V158.76l28.65-39.41h24v39.57h10.29v15H300.09v17.37H277.21V173.82Zm15.85-14.9h13.95V137.66Z" transform="translate(0 -35.19)"/></g><path id="path12" class="cls-1" d="M70.34,70.34a120.07,120.07,0,0,1,195.42,38.14c.5,1.19,1,2.39,1.45,3.6L255.9,114l-.48-1.16a108.84,108.84,0,0,0-200.46,0q-1.32,3.12-2.44,6.29l-10.41-4.22q1.16-3.24,2.51-6.44A119,119,0,0,1,70.34,70.34ZM265.76,201.9A120,120,0,0,1,70.34,240,119,119,0,0,1,44.62,201.9c-.22-.51-.43-1-.64-1.54H56.2a108.85,108.85,0,0,0,199.22-2.83l.55-1.32,11.52,1.37q-.83,2.17-1.73,4.32Z" transform="translate(0 -35.19)"/></g></g></svg>